<svg xmlns="http://www.w3.org/2000/svg" xmlns:xlink="http://www.w3.org/1999/xlink" width="16" height="16" viewBox="0 0 16 16">
  <defs>
    <clipPath id="clip-safari-pinned-tab">
      <rect width="16" height="16"/>
    </clipPath>
  </defs>
  <g id="safari-pinned-tab" clip-path="url(#clip-safari-pinned-tab)">
    <path id="Subtraction_1" data-name="Subtraction 1" d="M676-868H666a3,3,0,0,1-3-3v-10a3,3,0,0,1,3-3h10a3,3,0,0,1,3,3v10A3,3,0,0,1,676-868Zm-10.19-4.325h3.232l4.337,0c1.127,0,1.84,0,1.877,0l.152,0h.378a1.262,1.262,0,0,0,.878-.352,1.21,1.21,0,0,0,.377-.952V-877.1h-1.618v.443h1.049v2.862a1.751,1.751,0,0,1-.026.377c-.005.027-.009.051-.013.072a.472.472,0,0,1-.133.29.871.871,0,0,1-.309.227,1.039,1.039,0,0,1-.284.054l-.149.017h-.717l-.1,0-8.913,0-.166.442Zm.533-4.332,1.9,3.587h.661v-4.013h-.5v3.277l-1.736-3.277h-.828v4.013h.5v-3.586Zm4.095,2.468h1.736l.394,1.119h.569l-1.462-4.013h-.711l-1.462,4.013h.542l.393-1.118Zm3.047-.881v.488h1.682v-.488Zm-.147-4.8h0l4.962,2.75.08-.145-5.021-2.783-3.805,1.162v-1.14h-1.877v1.714l-3.359,1.026.049.157,8.971-2.741Zm-1.328,5.222H670.6l.706-1.97.7,1.969Z" transform="translate(-663 884)"/>
  </g>
</svg>
