<?xml version="1.0" encoding="iso-8859-1"?>
<!-- Generator: Adobe Illustrator 21.0.0, SVG Export Plug-In . SVG Version: 6.00 Build 0)  -->
<svg xmlns="http://www.w3.org/2000/svg" xmlns:xlink="http://www.w3.org/1999/xlink" version="1.1" id="Capa_1" x="0px" y="0px" viewBox="0 0 511.911 511.911" style="enable-background:new 0 0 511.911 511.911;" xml:space="preserve" width="512" height="512">
<g>
	<path style="fill:#EDF5FF;" d="M507.399,260.454l-86.651-85.8V30.956c0-8.401-6.399-15-14.8-15h-60c-8.401,0-15,6.599-15,15v53.699   l-64.501-64.2c-2.699-2.999-6.599-4.499-10.499-4.499c-3.9,0-7.8,1.5-10.499,4.499l-240.937,240   c-4.501,4.2-5.7,10.501-3.301,16.201c2.401,5.7,7.8,9.3,13.801,9.3h45.937v195c0,8.399,6.599,15,15,15h360   c8.401,0,14.8-6.601,14.8-15v-195H496.9c6,0,11.4-3.6,13.801-9.3C513.099,270.956,511.9,264.655,507.399,260.454z"/>
	<path style="fill:#D7E9FF;" d="M510.701,276.656c-2.401,5.7-7.8,9.3-13.801,9.3h-46.152v195c0,8.399-6.399,15-14.8,15h-180v-480   c3.9,0,7.8,1.5,10.499,4.499l64.501,64.2V30.956c0-8.401,6.599-15,15-15h60c8.401,0,14.8,6.599,14.8,15v143.699l86.651,85.8   C511.9,264.655,513.099,270.956,510.701,276.656z"/>
	<path style="fill:#FF595C;" d="M339.947,267.954l-71.999-95.999c-3.001-3.602-7.5-5.7-12.001-5.7c-4.501,0-9,2.098-12.001,5.7   l-71.999,95.999c-13.801,18.301-21,40.201-21,63.001c0,55.8,43.801,101.7,98.699,104.7c2.1,0.3,4.2,0.3,6.301,0.3   c2.1,0,4.2,0,6.301-0.3c54.899-2.999,98.499-48.9,98.499-104.7C360.748,308.155,353.748,286.256,339.947,267.954z"/>
	<path style="fill:#FC1D5A;" d="M360.748,330.956c0,55.8-43.601,101.7-98.499,104.7c-2.1,0.3-4.2,0.3-6.301,0.3v-269.7   c4.501,0,9,2.098,12.001,5.7l71.999,95.999C353.748,286.256,360.748,308.155,360.748,330.956z"/>
	<path style="fill:#FFDB2D;" d="M303.947,339.955l-35.999-47.999c-3.001-3.602-7.5-5.7-12.001-5.7c-4.501,0-9,2.098-12.001,5.7   l-35.999,47.999c-5.402,7.2-12.001,19.501-12.001,36c0,30.899,23.699,56.4,53.699,59.7c2.1,0.3,4.2,0.3,6.301,0.3   c2.1,0,4.2,0,6.301-0.3c30-3.3,53.499-28.801,53.499-59.7C315.748,359.456,309.349,347.155,303.947,339.955z"/>
	<path style="fill:#FFB62D;" d="M315.748,375.956c0,30.899-23.499,56.4-53.499,59.7c-2.1,0.3-4.2,0.3-6.301,0.3v-149.7   c4.501,0,9,2.098,12.001,5.7l35.999,47.999C309.349,347.155,315.748,359.456,315.748,375.956z"/>
</g>















</svg>
