<?xml version="1.0" encoding="iso-8859-1"?>
<!-- Generator: Adobe Illustrator 19.0.0, SVG Export Plug-In . SVG Version: 6.00 Build 0)  -->
<svg version="1.1" id="Layer_1" xmlns="http://www.w3.org/2000/svg" xmlns:xlink="http://www.w3.org/1999/xlink" x="0px" y="0px"
	 viewBox="0 0 512 512" style="enable-background:new 0 0 512 512;" xml:space="preserve">
<path style="fill:#FFA227;" d="M283.25,153.75L283,158l116.5-62L388,77c-1.575-3.023-1.995-7.081-2-10.25L254.315,121.5
	C270.692,124.769,283.25,136.404,283.25,153.75z"/>
<path style="fill:#FFCC5A;" d="M445.792,118.241L421.61,60.47c-4.348-10.386-16.26-15.313-26.669-11.031l0,0
	c-11.13,4.579-15.93,17.73-10.369,28.407L468.5,239l23.907-9.631l-34.574-82.362"/>
<rect x="153.9" y="329.11" style="fill:#CCCCCC;" width="145.26" height="50.34"/>
<rect x="268.88" y="329.11" style="fill:#B3B3B3;" width="30.28" height="50.34"/>
<path style="fill:#808080;" d="M400.941,464.105H60.988c-25.857,0-46.819-20.961-46.819-46.819v-0.023
	c0-25.857,20.961-46.819,46.819-46.819h339.953c25.857,0,46.819,20.961,46.819,46.819v0.023
	C447.759,443.143,426.798,464.105,400.941,464.105z"/>
<path style="fill:#666666;" d="M400.952,370.445h-29.971c25.851,0,46.807,20.967,46.807,46.83l0,0
	c0,25.863-20.956,46.83-46.807,46.83h29.971c25.851,0,46.807-20.966,46.807-46.83l0,0
	C447.759,391.411,426.803,370.445,400.952,370.445z"/>
<g>
	<ellipse style="fill:#B3B3B3;" cx="68.25" cy="417.27" rx="21.523" ry="21.533"/>
	<ellipse style="fill:#B3B3B3;" cx="393.68" cy="417.27" rx="21.523" ry="21.533"/>
	<path style="fill:#B3B3B3;" d="M353.6,403.87H108.328c1.315,4.235,2.024,8.737,2.024,13.405s-0.709,9.17-2.024,13.404H353.6
		c-1.315-4.235-2.024-8.737-2.024-13.404C351.576,412.607,352.285,408.105,353.6,403.87z"/>
</g>
<path style="fill:#CCCCCC;" d="M495.87,304.8l-17.799,7.692c-6.903,2.983-14.742,2.918-21.594-0.179l-69.833-31.561
	c-4.422-1.998-4.37-8.299,0.085-10.224l104.037-44.962l19.037,44.093C515.654,283.213,509.416,298.945,495.87,304.8z"/>
<path style="fill:#B3B3B3;" d="M509.803,269.66l-19.037-44.093L463.94,237.16l14.032,32.5c5.852,13.553-0.386,29.285-13.933,35.14
	l-12.365,5.344l4.802,2.17c6.852,3.097,14.692,3.162,21.594,0.179l17.799-7.692C509.416,298.945,515.654,283.213,509.803,269.66z"/>
<path style="fill:#CCCCCC;" d="M287.176,180.901V154.44c0-19.754-16.006-35.768-35.751-35.768H220.15
	c-6.795,0-12.304,5.512-12.304,12.31v49.919H287.176z"/>
<path style="fill:#B3B3B3;" d="M251.425,118.671h-29.971c19.745,0,35.751,16.014,35.751,35.768v26.462h29.971V154.44
	C287.176,134.685,271.17,118.671,251.425,118.671z"/>
<path style="fill:#FFCC5A;" d="M292.507,171.895H179.375c-5.601,0-10.141,4.542-10.141,10.146v43.882
	c0,5.603-4.54,10.146-10.141,10.146H10.141C4.54,236.07,0,240.612,0,246.215v81.75c0,5.603,4.54,10.146,10.141,10.146h306.584
	c5.887,0,10.659-4.774,10.659-10.664v-93.603c0-2.714-0.619-5.393-1.809-7.832l-23.49-48.133
	C300.297,174.218,296.58,171.895,292.507,171.895z"/>
<path style="fill:#FFB000;" d="M325.574,226.013l-23.49-48.133c-1.787-3.662-5.504-5.985-9.578-5.985h-29.971
	c4.073,0,7.791,2.323,9.578,5.985l23.49,48.132c1.19,2.439,1.809,5.118,1.809,7.832v61.242c0,7.231-5.859,13.093-13.086,13.093
	H10.141C4.54,308.18,0,303.638,0,298.034v29.932c0,5.603,4.54,10.146,10.141,10.146h276.613h29.971
	c5.887,0,10.659-4.774,10.659-10.664v-29.932v-63.672C327.383,231.13,326.765,228.452,325.574,226.013z"/>
<path style="fill:#AEFFFF;" d="M278.751,197.294H199.83c-1.222,0-2.213,0.991-2.213,2.214v36.35c0,0.592,0.237,1.159,0.658,1.575
	l27.254,26.931c0.414,0.409,0.973,0.639,1.555,0.639h69.526c1.222,0,2.213-0.991,2.213-2.214V236.1c0-0.337-0.077-0.669-0.224-0.971
	l-17.858-36.593C280.369,197.776,279.597,197.294,278.751,197.294z"/>
<path style="fill:#84F1F7;" d="M298.598,235.129l-17.858-36.593c-0.371-0.76-1.143-1.243-1.989-1.243H248.78
	c0.846,0,1.618,0.482,1.989,1.243l17.858,36.593c0.148,0.303,0.224,0.635,0.224,0.972v26.689c0,1.223-0.991,2.214-2.213,2.214
	h29.971c1.222,0,2.213-0.991,2.213-2.214v-26.689C298.823,235.764,298.746,235.432,298.598,235.129z"/>
<g>
	<path style="fill:#FFB000;" d="M220.839,273.435c-4.267,0-7.726,3.459-7.726,7.726s3.459,7.726,7.726,7.726h18.946
		c4.267,0,7.726-3.459,7.726-7.726s-3.459-7.726-7.726-7.726H220.839z"/>
	<path style="fill:#FFB000;" d="M49.511,301.699c2.862,0,5.613-1.598,6.951-4.344l19.22-39.44c1.869-3.835,0.275-8.461-3.561-10.33
		c-3.837-1.869-8.461-0.277-10.33,3.561l-19.22,39.44c-1.869,3.835-0.275,8.461,3.561,10.33
		C47.222,301.447,48.375,301.699,49.511,301.699z"/>
	<path style="fill:#FFB000;" d="M88.013,301.699c2.862,0,5.613-1.598,6.951-4.344l19.22-39.44c1.869-3.835,0.275-8.461-3.561-10.33
		c-3.838-1.869-8.461-0.277-10.33,3.561l-19.22,39.44c-1.869,3.835-0.275,8.461,3.561,10.33
		C85.724,301.447,86.877,301.699,88.013,301.699z"/>
	<path style="fill:#FFB000;" d="M126.515,301.699c2.862,0,5.613-1.598,6.951-4.344l19.22-39.44c1.869-3.835,0.275-8.461-3.561-10.33
		c-3.837-1.869-8.461-0.277-10.33,3.561l-19.22,39.44c-1.869,3.835-0.275,8.461,3.561,10.33
		C124.226,301.447,125.379,301.699,126.515,301.699z"/>
</g>
<g>
</g>
<g>
</g>
<g>
</g>
<g>
</g>
<g>
</g>
<g>
</g>
<g>
</g>
<g>
</g>
<g>
</g>
<g>
</g>
<g>
</g>
<g>
</g>
<g>
</g>
<g>
</g>
<g>
</g>
</svg>
