<?xml version="1.0" encoding="iso-8859-1"?>
<!-- Generator: Adobe Illustrator 19.0.0, SVG Export Plug-In . SVG Version: 6.00 Build 0)  -->
<svg version="1.1" id="Layer_1" xmlns="http://www.w3.org/2000/svg" xmlns:xlink="http://www.w3.org/1999/xlink" x="0px" y="0px"
	 viewBox="0 0 512 512" style="enable-background:new 0 0 512 512;" xml:space="preserve">
<rect x="357.22" y="15.1" style="fill:#5B5D6E;" width="46.01" height="73.61"/>
<polygon style="fill:#FFD782;" points="486.042,107.125 256,5.906 25.957,107.125 25.957,502.798 486.042,502.798 "/>
<g>
	<rect x="467.64" y="125.53" style="fill:#E4EAF6;" width="18.403" height="377.27"/>
	<rect x="25.957" y="125.53" style="fill:#E4EAF6;" width="18.403" height="377.27"/>
</g>
<rect x="25.957" y="465.99" style="fill:#C7CFE2;" width="460.08" height="27.605"/>
<rect x="210" y="318.76" style="fill:#E4EAF6;" width="92.02" height="184.03"/>
<path style="fill:#FFFFFF;" d="M302.008,512h-92.017c-5.082,0-9.202-4.12-9.202-9.202V318.764c0-5.082,4.12-9.202,9.202-9.202
	h92.017c5.082,0,9.202,4.12,9.202,9.202v184.034C311.21,507.88,307.09,512,302.008,512z M219.193,493.596h73.614v-165.63h-73.614
	L219.193,493.596L219.193,493.596z"/>
<rect x="81.17" y="318.76" style="fill:#B4E1FA;" width="82.81" height="110.42"/>
<polygon style="fill:#A0D2F0;" points="81.168,429.184 143.279,429.184 81.168,318.764 "/>
<polygon style="fill:#DAF0FD;" points="163.983,367.84 136.378,318.764 108.773,318.764 163.983,416.915 "/>
<rect x="81.17" y="318.76" style="fill:#A0D2F0;" width="82.81" height="27.605"/>
<polygon style="fill:#B4E1FA;" points="151.906,346.369 136.378,318.764 108.773,318.764 124.301,346.369 "/>
<path style="fill:#FFFFFF;" d="M163.983,309.562H81.168c-5.082,0-9.202,4.12-9.202,9.202v110.42c0,5.082,4.12,9.202,9.202,9.202
	h82.815c5.082,0,9.202-4.12,9.202-9.202v-110.42C173.185,313.682,169.066,309.562,163.983,309.562z M154.781,327.966v36.807H90.369
	v-36.807H154.781z M90.369,419.983v-36.807h64.412v36.807H90.369z"/>
<rect x="81.17" y="153.13" style="fill:#B4E1FA;" width="82.81" height="110.42"/>
<polygon style="fill:#A0D2F0;" points="81.168,263.554 143.279,263.554 81.168,153.133 "/>
<polygon style="fill:#DAF0FD;" points="163.983,202.209 136.378,153.133 108.773,153.133 163.983,251.284 "/>
<rect x="81.17" y="153.13" style="fill:#A0D2F0;" width="82.81" height="27.605"/>
<polygon style="fill:#B4E1FA;" points="151.906,180.738 136.378,153.133 108.773,153.133 124.301,180.738 "/>
<path style="fill:#FFFFFF;" d="M163.983,143.932H81.168c-5.082,0-9.202,4.12-9.202,9.202v110.42c0,5.082,4.12,9.202,9.202,9.202
	h82.815c5.082,0,9.202-4.12,9.202-9.202v-110.42C173.185,148.052,169.066,143.932,163.983,143.932z M154.781,162.335v36.807H90.369
	v-36.807L154.781,162.335L154.781,162.335z M90.369,254.352v-36.807h64.412v36.807L90.369,254.352L90.369,254.352z"/>
<rect x="348.02" y="153.13" style="fill:#B4E1FA;" width="82.81" height="110.42"/>
<polygon style="fill:#A0D2F0;" points="348.017,263.554 410.128,263.554 348.017,153.133 "/>
<polygon style="fill:#DAF0FD;" points="430.832,202.209 403.227,153.133 375.622,153.133 430.832,251.284 "/>
<rect x="348.02" y="153.13" style="fill:#A0D2F0;" width="82.81" height="27.605"/>
<polygon style="fill:#B4E1FA;" points="418.755,180.738 403.227,153.133 375.622,153.133 391.15,180.738 "/>
<path style="fill:#FFFFFF;" d="M430.832,143.932h-82.815c-5.082,0-9.202,4.12-9.202,9.202v110.42c0,5.082,4.12,9.202,9.202,9.202
	h82.815c5.082,0,9.202-4.12,9.202-9.202v-110.42C440.034,148.052,435.914,143.932,430.832,143.932z M421.631,162.335v36.807h-64.412
	v-36.807L421.631,162.335L421.631,162.335z M357.219,254.352v-36.807h64.412v36.807L357.219,254.352L357.219,254.352z"/>
<rect x="210" y="153.13" style="fill:#B4E1FA;" width="92.02" height="110.42"/>
<polygon style="fill:#A0D2F0;" points="209.991,263.554 272.103,263.554 209.991,153.133 "/>
<polygon style="fill:#DAF0FD;" points="292.807,202.209 265.202,153.133 237.596,153.133 292.807,251.284 "/>
<rect x="210" y="153.13" style="fill:#A0D2F0;" width="92.02" height="27.605"/>
<polygon style="fill:#B4E1FA;" points="280.729,180.738 265.202,153.133 237.596,153.133 253.124,180.738 "/>
<path style="fill:#FFFFFF;" d="M302.008,143.932h-92.017c-5.082,0-9.202,4.12-9.202,9.202v110.42c0,5.082,4.12,9.202,9.202,9.202
	h92.017c5.082,0,9.202-4.12,9.202-9.202v-110.42C311.21,148.052,307.09,143.932,302.008,143.932z M292.807,254.352h-73.614v-36.807
	h73.614V254.352z M292.807,199.142h-73.614v-36.807h73.614V199.142z"/>
<rect x="348.02" y="318.76" style="fill:#B4E1FA;" width="82.81" height="110.42"/>
<polygon style="fill:#A0D2F0;" points="348.017,429.184 410.128,429.184 348.017,318.764 "/>
<polygon style="fill:#DAF0FD;" points="430.832,367.84 403.227,318.764 375.622,318.764 430.832,416.915 "/>
<rect x="348.02" y="318.76" style="fill:#A0D2F0;" width="82.81" height="27.605"/>
<polygon style="fill:#B4E1FA;" points="418.755,346.369 403.227,318.764 375.622,318.764 391.15,346.369 "/>
<path style="fill:#FFFFFF;" d="M430.832,309.562h-82.815c-5.082,0-9.202,4.12-9.202,9.202v110.42c0,5.082,4.12,9.202,9.202,9.202
	h82.815c5.082,0,9.202-4.12,9.202-9.202v-110.42C440.034,313.682,435.914,309.562,430.832,309.562z M421.631,327.966v36.807h-64.412
	v-36.807H421.631z M357.219,419.983v-36.807h64.412v36.807H357.219z"/>
<polygon style="fill:#C7CFE2;" points="25.957,109.921 25.957,136.433 256,42.713 486.042,136.433 486.042,109.921 256,16.199 "/>
<path style="fill:#707487;" d="M245.585,2.04L15.003,95.98c-4.504,1.835-7.449,6.215-7.449,11.078v4.784
	c0,6.536,6.622,10.987,12.673,8.522L256,24.308l235.773,96.055c6.052,2.466,12.673-1.986,12.673-8.522v-4.784
	c0-4.863-2.945-9.243-7.449-11.078L266.415,2.04C259.738-0.68,252.262-0.68,245.585,2.04z"/>
<path style="fill:#8F96AC;" d="M499.845,512H12.155c-2.541,0-4.601-2.06-4.601-4.601v-9.202c0-2.541,2.06-4.601,4.601-4.601h487.69
	c2.541,0,4.601,2.06,4.601,4.601v9.202C504.446,509.94,502.386,512,499.845,512z"/>
<path style="fill:#6F7589;" d="M407.828,24.309h-55.21c-2.541,0-4.601-2.06-4.601-4.601v-9.202c0-2.541,2.06-4.601,4.601-4.601
	h55.21c2.541,0,4.601,2.06,4.601,4.601v9.202C412.429,22.249,410.369,24.309,407.828,24.309z"/>
<g>
</g>
<g>
</g>
<g>
</g>
<g>
</g>
<g>
</g>
<g>
</g>
<g>
</g>
<g>
</g>
<g>
</g>
<g>
</g>
<g>
</g>
<g>
</g>
<g>
</g>
<g>
</g>
<g>
</g>
</svg>
