<svg id="color" enable-background="new 0 0 24 24" height="512" viewBox="0 0 24 24" width="512" xmlns="http://www.w3.org/2000/svg"><path d="m15.75 20h-10.5c-1.241 0-2.25-1.01-2.25-2.25v-6.25h-1.75c-.689 0-1.25-.561-1.25-1.25 0-.348.148-.682.406-.916l9.576-9.127c.29-.275.746-.275 1.035 0l2.483 2.363v-.82c0-.414.336-.75.75-.75h3c.414 0 .75.336.75.75v5.108l2.607 2.488c.245.222.393.556.393.904 0 .689-.561 1.25-1.25 1.25h-1.75v6.25c0 1.24-1.009 2.25-2.25 2.25z" fill="#cfd8dc"/><path d="m10.5 0c-.186 0-.373.069-.518.207l-9.576 9.127c-.258.234-.406.568-.406.916 0 .689.561 1.25 1.25 1.25h1.75v6.25c0 1.24 1.009 2.25 2.25 2.25h5.25z" fill="#b4bcc0"/><path d="m17.5 11c-3.584 0-6.5 2.916-6.5 6.5s2.916 6.5 6.5 6.5 6.5-2.916 6.5-6.5-2.916-6.5-6.5-6.5z" fill="#4caf50"/><path d="m20 18.5h-1.5v1.5c0 .552-.448 1-1 1s-1-.448-1-1v-1.5h-1.5c-.552 0-1-.448-1-1s.448-1 1-1h1.5v-1.5c0-.552.448-1 1-1s1 .448 1 1v1.5h1.5c.552 0 1 .448 1 1s-.448 1-1 1z" fill="#fff"/><path d="m17.5 11c-3.584 0-6.5 2.916-6.5 6.5s2.916 6.5 6.5 6.5v-3c-.552 0-1-.448-1-1v-1.5h-1.5c-.552 0-1-.448-1-1s.448-1 1-1h1.5v-1.5c0-.552.448-1 1-1z" fill="#429846"/><path d="m17.5 14c-.552 0-1 .448-1 1v1.5h-1.5c-.552 0-1 .448-1 1s.448 1 1 1h1.5v1.5c0 .552.448 1 1 1z" fill="#dedede"/></svg>