<svg id="Capa_1" enable-background="new 0 0 512.009 512.009" height="512" viewBox="0 0 512.009 512.009" width="512" xmlns="http://www.w3.org/2000/svg"><g><path d="m225 146.004h-161c-8.284 0-15 6.716-15 15v112c0 8.284 6.716 15 15 15h161c8.284 0 15-6.716 15-15v-112c0-8.284-6.716-15-15-15z" fill="#be0000"/><path d="m176 258.004h-161c-8.284 0-15 6.716-15 15v112c0 8.284 6.716 15 15 15h161c8.284 0 15-6.716 15-15v-112c0-8.284-6.716-15-15-15z" fill="#ff7038"/><path d="m351 273.004v112c0 8.28-6.72 15-15 15h-160v-142h160c8.28 0 15 6.72 15 15z" fill="#ff2929"/><path d="m351 273.004v112c0 8.28-6.72 15-15 15h-80v-142h80c8.28 0 15 6.72 15 15z" fill="#be0000"/><path d="m512 273.004v112c0 8.28-6.72 15-15 15h-161v-142h161c8.28 0 15 6.72 15 15z" fill="#63000d"/><path d="m111 385.004v112c0 8.28-6.72 15-15 15h-81c-8.28 0-15-6.72-15-15v-112z" fill="#ff2929"/><path d="m271 385.004v112c0 8.28-6.72 15-15 15h-160v-127z" fill="#be0000"/><path d="m431 385.004v112c0 8.28-6.72 15-15 15h-160v-127z" fill="#840012"/><path d="m512 385.004v112c0 8.28-6.72 15-15 15h-81v-127z" fill="#be0000"/><path d="m424.7 108.524-42.09 42.091c-2.93 2.93-6.77 4.39-10.61 4.39-13.312 0-20.024-16.179-10.61-25.61l42.09-42.09c5.86-5.85 15.36-5.85 21.22 0 5.85 5.859 5.85 15.359 0 21.219z" fill="#08475e"/><path d="m424.7 108.524-42.09 42.091c-5.824 5.824-15.338 5.882-21.22 0l63.31-63.311c5.85 5.86 5.85 15.36 0 21.22z" fill="#05303d"/><path d="m512 47.004c0 12.932-5.181 24.659-13.77 33.23l-28.28 28.289c-18.32 18.32-48.15 18.32-66.47 0-18.32-18.329-18.32-48.14 0-66.47l28.29-28.28c8.87-8.88 20.68-13.77 33.23-13.77 25.975.001 47 21.031 47 47.001z" fill="#0a789b"/><path d="m498.23 80.235-28.28 28.289c-18.32 18.32-48.15 18.32-66.47 0l94.75-94.75c18.432 18.411 18.311 48.188 0 66.461z" fill="#08475e"/><path d="m408.32 180.485-53.17 35.449c-16.813 11.193-39.426 9.014-53.76-5.319-14.31-14.311-16.55-36.92-5.32-53.761l35.45-53.17c5.237-7.865 16.397-8.982 23.09-2.29l56 56c6.727 6.748 5.534 17.882-2.29 23.091z" fill="#e0eaef"/><path d="m408.32 180.485-53.17 35.449c-16.813 11.193-39.426 9.014-53.76-5.319l81.22-81.221 28 28c6.727 6.748 5.534 17.882-2.29 23.091z" fill="#cce0e5"/></g></svg>